<?xml version="1.0" encoding="UTF-8" standalone="no"?>
<!-- Created with Inkscape (http://www.inkscape.org/) -->

<svg
   version="1.1"
   id="svg492048"
   width="800"
   height="800"
   viewBox="0 0 800 800"
   sodipodi:docname="swans-vector-art-publicdomainvectors.org.svg"
   inkscape:version="1.2 (dc2aedaf03, 2022-05-15)"
   xmlns:inkscape="http://www.inkscape.org/namespaces/inkscape"
   xmlns:sodipodi="http://sodipodi.sourceforge.net/DTD/sodipodi-0.dtd"
   xmlns="http://www.w3.org/2000/svg"
   xmlns:svg="http://www.w3.org/2000/svg">
  <defs
     id="defs492052">
    <clipPath
       clipPathUnits="userSpaceOnUse"
       id="clipPath492064">
      <path
         d="M 0,600 H 600 V 0 H 0 Z"
         id="path492062" />
    </clipPath>
  </defs>
  <sodipodi:namedview
     id="namedview492050"
     pagecolor="#ffffff"
     bordercolor="#000000"
     borderopacity="0.25"
     inkscape:showpageshadow="2"
     inkscape:pageopacity="0.0"
     inkscape:pagecheckerboard="0"
     inkscape:deskcolor="#d1d1d1"
     showgrid="false"
     inkscape:zoom="1.04625"
     inkscape:cx="400"
     inkscape:cy="400.4779"
     inkscape:window-width="1920"
     inkscape:window-height="1017"
     inkscape:window-x="-8"
     inkscape:window-y="-8"
     inkscape:window-maximized="1"
     inkscape:current-layer="g492056">
    <inkscape:page
       x="0"
       y="0"
       id="page492054"
       width="800"
       height="800" />
  </sodipodi:namedview>
  <g
     id="g492056"
     inkscape:groupmode="layer"
     inkscape:label="Page 1"
     transform="matrix(1.3333333,0,0,-1.3333333,0,800)">
    <g
       id="g492058">
      <g
         id="g492060"
         clip-path="url(#clipPath492064)">
        <g
           id="g492066"
           transform="translate(548.0127,141.5029)">
          <path
             d="m 0,0 c 0,0.24 -0.193,3.178 -8.468,7.323 0.85,-1.1 1.294,-2.219 1.294,-3.35 0,-17.495 -103.887,-31.677 -232.038,-31.677 -128.152,0 -232.039,14.182 -232.039,31.677 0,1.131 0.445,2.25 1.294,3.35 -8.274,-4.145 -8.468,-7.083 -8.468,-7.323 0,-0.485 0.772,-12.023 67.799,-22.268 45.753,-6.993 106.63,-10.843 171.414,-10.843 64.783,0 125.658,3.85 171.412,10.843 C -0.771,-12.023 0,-0.485 0,0 m 8.144,0 c 0,-7.014 -7.133,-13 -21.807,-18.303 -12.502,-4.517 -30.303,-8.561 -52.906,-12.015 -46.147,-7.053 -107.46,-10.938 -172.643,-10.938 -65.183,0 -126.496,3.885 -172.643,10.938 -22.604,3.454 -40.405,7.498 -52.907,12.015 -14.674,5.303 -21.806,11.289 -21.806,18.303 0,7.014 7.132,13.001 21.806,18.303 12.503,4.518 30.303,8.56 52.907,12.014 3.189,0.489 6.459,0.959 9.79,1.416 0.737,-0.969 1.499,-1.933 2.293,-2.886 -20.848,-3.519 -36.478,-7.846 -44.076,-12.886 -3.334,-2.212 -5.133,-4.56 -5.133,-7.035 0,-19.143 106.657,-30.581 209.769,-30.581 103.112,0 209.767,11.438 209.767,30.581 0,2.475 -1.8,4.823 -5.133,7.036 -8.507,5.642 -27.088,10.392 -51.777,14.112 0.714,0.896 1.412,1.796 2.077,2.701 6.117,-0.769 12.029,-1.588 17.709,-2.457 22.603,-3.455 40.404,-7.497 52.906,-12.015 C 1.011,13.001 8.144,7.014 8.144,0 m -454.866,8.926 c 0,-13.677 83.382,-28.322 207.51,-28.322 124.126,0 207.509,14.645 207.509,28.322 0,3.005 -4.026,6.055 -11.623,8.989 -9.546,3.685 -24.74,7.182 -44.672,10.163 -0.788,-0.925 -1.609,-1.841 -2.449,-2.75 -1.958,-2.117 -4.058,-4.191 -6.287,-6.213 7.202,-2.621 11.405,-5.678 11.405,-9.219 0,-8.98 -26.976,-14.861 -61.529,-18.369 -10.319,-2.967 -20.736,-4.544 -30.688,-4.544 -5.345,0 -10.53,0.462 -15.555,1.324 -15.976,-0.697 -31.846,-1.017 -46.111,-1.017 -22.025,0 -47.872,0.763 -72.03,2.495 -0.605,-0.011 -1.205,-0.04 -1.811,-0.04 -7.155,0 -14.352,0.71 -21.477,2.093 -33.121,3.539 -58.566,9.337 -58.566,18.058 0,2.462 2.042,4.69 5.699,6.702 -2.993,2.476 -5.786,5.072 -8.358,7.76 -0.793,0.829 -1.563,1.667 -2.314,2.513 -16.199,-2.701 -28.743,-5.758 -37.029,-8.956 -7.597,-2.934 -11.624,-5.984 -11.624,-8.989 M -205.785,-8.5 c -13.8,4.664 -25.989,12.888 -35.999,24.464 -0.576,0.666 -1.122,1.348 -1.645,2.047 -0.689,-0.831 -1.42,-1.636 -2.243,-2.376 -13.088,-11.795 -28.366,-19.705 -44.972,-23.429 16.277,-0.798 33.617,-1.214 51.432,-1.214 11.391,0 22.577,0.176 33.427,0.508 m -183.61,18.396 c 0,-2.291 7.06,-6.94 32.028,-11.181 -3.735,1.54 -7.415,3.261 -11.015,5.18 -5.683,3.032 -11.003,6.471 -15.877,10.207 -3.734,-1.706 -5.136,-3.191 -5.136,-4.206 m 258.224,-12.733 c 3.685,1.601 7.318,3.371 10.87,5.319 7.454,4.088 14.294,8.753 20.323,13.803 8.177,-2.601 10.947,-4.958 10.947,-6.389 0,-2.574 -8.913,-8.127 -42.14,-12.733"
             style="fill:#3972c2;fill-opacity:1;fill-rule:nonzero;stroke:none"
             id="path492068" />
        </g>
        <g
           id="g492070"
           transform="translate(330.2666,363.4331)">
          <path
             d="m 0,0 c -0.5,-1.771 -1.598,-3.011 -2.45,-2.77 -0.853,0.24 -1.138,1.872 -0.637,3.643 0.5,1.771 1.597,3.01 2.45,2.769 C 0.216,3.401 0.501,1.77 0,0 m 136.155,-109.419 c -1.842,-0.208 -3.606,-0.833 -5.295,-1.61 -1.68,-0.81 -3.319,-1.737 -4.884,-2.806 -1.582,-1.042 -3.131,-2.152 -4.658,-3.311 -3.088,-2.268 -6.105,-4.701 -9.396,-6.832 -1.642,-1.067 -3.362,-2.059 -5.227,-2.784 -0.925,-0.369 -1.918,-0.613 -2.913,-0.733 -1.009,-0.074 -2.033,0.055 -2.916,0.476 0.963,-0.198 1.909,-0.098 2.809,0.127 0.892,0.291 1.757,0.626 2.566,1.115 1.646,0.903 3.168,2.049 4.682,3.208 3.005,2.359 5.952,4.857 9.068,7.203 3.142,2.292 6.426,4.549 10.204,5.938 1.876,0.694 3.889,1.141 5.916,1.098 2.022,-0.051 4.031,-0.655 5.607,-1.812 -1.814,0.721 -3.725,0.962 -5.563,0.723 m -25.987,-4.63 c 0.892,0.587 1.713,1.305 2.544,2.021 1.648,1.449 3.276,2.986 5.064,4.395 1.784,1.402 3.713,2.735 5.956,3.571 1.114,0.416 2.326,0.672 3.542,0.629 1.211,-0.06 2.409,-0.449 3.293,-1.19 -2.243,0.631 -4.292,-0.024 -6.127,-1.022 -1.852,-1.009 -3.55,-2.38 -5.287,-3.731 -1.731,-1.366 -3.48,-2.781 -5.405,-4.034 -0.96,-0.625 -1.981,-1.197 -3.099,-1.612 -0.554,-0.202 -1.153,-0.341 -1.75,-0.393 -0.607,-0.028 -1.22,0.077 -1.723,0.355 1.156,-0.088 2.109,0.412 2.992,1.011 m -0.35,8.657 c 0.695,0.487 1.335,1.081 1.991,1.663 1.299,1.186 2.596,2.435 4.04,3.571 1.438,1.131 3.012,2.2 4.854,2.856 0.914,0.327 1.913,0.515 2.91,0.458 0.993,-0.075 1.967,-0.425 2.656,-1.063 -1.844,0.42 -3.414,-0.162 -4.858,-0.977 -1.451,-0.828 -2.795,-1.934 -4.186,-3.016 -1.386,-1.096 -2.803,-2.221 -4.38,-3.208 -0.785,-0.497 -1.626,-0.942 -2.547,-1.257 -0.456,-0.151 -0.949,-0.256 -1.442,-0.28 -0.499,-0.009 -1.002,0.098 -1.398,0.345 0.941,-0.023 1.669,0.404 2.36,0.908 m 136.938,33.932 c -3.98,0 -50.818,-14.961 -50.818,-14.961 0,0 20.639,17.955 19.528,18.973 -0.031,0.029 -0.098,0.041 -0.197,0.041 -3.451,0 -46.644,-16.633 -46.644,-16.633 0,0 16.783,11.953 16.376,14.195 -0.025,0.144 -0.238,0.213 -0.614,0.213 -5.431,0 -44.786,-14.174 -44.786,-14.174 0,0 18.084,11.389 17.838,12.502 -0.01,0.042 -0.123,0.065 -0.333,0.065 -4.809,0 -60.717,-11.682 -102.878,-53.707 l 0.203,-0.185 c -5.726,-6.101 -9.871,-13.759 -12.568,-21.829 -2.666,-8.077 -3.993,-16.727 -3.155,-25.154 0.455,-4.186 1.468,-8.345 3.457,-11.956 1.954,-3.607 4.999,-6.57 8.812,-7.996 1.881,-0.703 3.963,-1.117 5.97,-1.147 1.971,-0.047 3.95,0.503 5.818,1.36 3.753,1.741 7.021,4.651 10.028,7.717 5.982,6.247 11.093,13.393 16.244,20.462 5.136,7.091 10.229,14.253 15.809,21.047 5.589,6.752 11.639,13.291 18.959,18.237 3.66,2.44 7.664,4.425 11.937,5.507 4.276,1.069 8.776,1.12 13.059,0.194 -4.304,0.838 -8.778,0.691 -12.991,-0.452 -4.214,-1.158 -8.132,-3.202 -11.705,-5.689 -7.142,-5.04 -13.009,-11.641 -18.429,-18.465 -5.409,-6.866 -10.338,-14.103 -15.334,-21.305 -5.018,-7.183 -9.985,-14.455 -16.005,-21.007 -3.045,-3.219 -6.36,-6.353 -10.546,-8.413 -2.082,-1.009 -4.413,-1.728 -6.842,-1.726 -2.374,-0.008 -4.66,0.396 -6.901,1.169 -2.219,0.798 -4.299,2.021 -6.069,3.591 -1.771,1.568 -3.236,3.442 -4.401,5.454 -2.338,4.041 -3.521,8.552 -4.116,13.039 -0.561,4.505 -0.516,9.044 -0.02,13.518 0.493,4.473 1.422,8.89 2.751,13.191 1.575,5.072 3.694,10.013 6.417,14.63 4.383,10.463 23.407,33.543 42.121,81.937 25.915,67.003 -19.62,89.299 -45.285,93.499 -3.751,0.614 -7.359,0.895 -10.819,0.895 -23.866,0 -40.536,-13.374 -45.83,-23.148 -5.884,-10.865 -9.957,-24.233 0.759,-32.766 0.403,0.129 0.81,0.249 1.229,0.329 1.501,0.389 3.058,0.544 4.593,0.572 1.541,0.025 3.063,-0.161 4.558,-0.337 0.747,-0.082 1.499,-0.165 2.225,-0.044 0.734,0.098 1.377,0.566 1.762,1.227 -0.323,-0.685 -0.954,-1.24 -1.722,-1.408 -0.756,-0.191 -1.535,-0.166 -2.29,-0.146 -1.516,0.056 -3.016,0.116 -4.496,-0.032 -1.477,-0.149 -2.937,-0.414 -4.331,-0.901 -0.126,-0.036 -0.246,-0.089 -0.369,-0.131 11.776,-8.443 8.822,-16.667 7.585,-24.278 5.524,1.676 10.302,17.754 7.732,27.527 8.195,6.682 12.021,28.261 21.508,29.906 1.863,0.323 4.031,0.513 6.382,0.513 13.396,0 32.754,-6.196 35.709,-29.446 7.405,-58.243 -68.366,-103.168 -84.96,-138.29 0,0 -21.619,-35.082 -1.91,-57.869 17.179,-19.864 39.203,-27.7 61.439,-27.7 38.696,0 78.029,23.739 93.547,49.129 24.432,39.982 113.277,109.116 113.277,110.565 0,0.059 -0.091,0.091 -0.268,0.091 m -434.64,-38.556 c 1.988,0.117 3.983,-0.226 5.857,-0.824 3.776,-1.193 7.103,-3.274 10.282,-5.401 3.156,-2.182 6.145,-4.524 9.183,-6.727 1.531,-1.081 3.07,-2.147 4.719,-2.971 0.815,-0.452 1.677,-0.744 2.563,-1.007 0.893,-0.191 1.823,-0.264 2.77,-0.073 -0.866,-0.414 -1.863,-0.568 -2.858,-0.532 -0.979,0.088 -1.965,0.285 -2.887,0.609 -1.862,0.637 -3.594,1.542 -5.248,2.526 -3.32,1.964 -6.375,4.24 -9.496,6.344 -1.544,1.075 -3.109,2.104 -4.706,3.057 -1.582,0.98 -3.227,1.83 -4.913,2.546 -1.693,0.688 -3.451,1.221 -5.271,1.362 -1.819,0.171 -3.688,-0.11 -5.472,-0.813 1.547,1.139 3.494,1.776 5.477,1.904 m 7.58,6.852 c 1.35,0.093 2.711,-0.13 3.98,-0.536 2.559,-0.807 4.773,-2.236 6.868,-3.696 2.072,-1.507 4.012,-3.116 5.951,-4.662 0.981,-0.755 1.954,-1.509 3.002,-2.111 1.039,-0.621 2.163,-1.097 3.456,-0.963 -0.571,-0.297 -1.247,-0.424 -1.924,-0.41 -0.666,0.042 -1.339,0.172 -1.965,0.379 -1.265,0.418 -2.435,1.017 -3.542,1.678 -2.224,1.314 -4.232,2.857 -6.27,4.284 -1.001,0.739 -2.017,1.44 -3.048,2.096 -1.015,0.682 -2.075,1.267 -3.151,1.787 -2.15,1.004 -4.539,1.565 -7.029,0.793 1.012,0.803 2.326,1.255 3.672,1.361 m 5.884,6.399 c 0.996,0.057 1.995,-0.132 2.911,-0.457 1.842,-0.658 3.416,-1.727 4.857,-2.86 1.443,-1.136 2.74,-2.384 4.041,-3.572 0.655,-0.582 1.296,-1.174 1.991,-1.664 0.69,-0.501 1.419,-0.929 2.361,-0.907 -0.397,-0.246 -0.899,-0.352 -1.399,-0.345 -0.49,0.026 -0.986,0.129 -1.442,0.28 -0.921,0.317 -1.764,0.762 -2.549,1.256 -1.575,0.99 -2.994,2.116 -4.38,3.212 -1.393,1.081 -2.737,2.187 -4.189,3.017 -1.444,0.815 -3.012,1.396 -4.858,0.976 0.688,0.639 1.661,0.989 2.656,1.064 M -51.006,3.642 c 0.852,0.241 1.949,-0.998 2.45,-2.769 0.501,-1.771 0.217,-3.403 -0.637,-3.643 -0.853,-0.241 -1.949,0.999 -2.451,2.77 -0.5,1.77 -0.214,3.401 0.638,3.642 m 19.743,-168.799 c 1.025,4.047 2.327,7.742 3.614,10.893 -1.912,6.113 -3.656,10.2 -3.656,10.2 -18.775,42.479 -93.374,78.435 -85.969,136.678 2.955,23.25 22.313,29.446 35.709,29.446 2.351,0 4.519,-0.19 6.381,-0.513 9.489,-1.645 13.313,-23.224 21.509,-29.906 -2.569,-9.773 2.207,-25.851 7.733,-27.527 -1.238,7.611 -4.193,15.835 7.584,24.278 -0.123,0.042 -0.243,0.095 -0.37,0.131 -1.394,0.487 -2.854,0.752 -4.33,0.901 -1.482,0.148 -2.979,0.088 -4.496,0.032 -0.755,-0.02 -1.534,-0.045 -2.29,0.146 -0.769,0.168 -1.399,0.723 -1.722,1.408 0.384,-0.661 1.028,-1.129 1.762,-1.227 0.726,-0.121 1.478,-0.038 2.225,0.044 1.494,0.176 3.017,0.362 4.558,0.337 1.535,-0.028 3.092,-0.183 4.593,-0.572 0.421,-0.08 0.826,-0.2 1.229,-0.329 10.719,8.533 6.645,21.901 0.76,32.766 -5.295,9.774 -21.966,23.147 -45.831,23.148 -3.46,0 -7.069,-0.281 -10.819,-0.895 -25.666,-4.2 -71.201,-26.496 -45.287,-93.499 18.716,-48.394 37.74,-71.475 42.123,-81.937 2.723,-4.617 4.842,-9.558 6.417,-14.63 1.328,-4.301 2.257,-8.718 2.751,-13.191 0.495,-4.474 0.541,-9.013 -0.021,-13.518 -0.595,-4.487 -1.777,-8.998 -4.115,-13.039 -1.166,-2.012 -2.631,-3.886 -4.402,-5.454 -1.77,-1.57 -3.851,-2.793 -6.069,-3.591 -2.241,-0.773 -4.527,-1.177 -6.9,-1.169 -2.428,-0.002 -4.761,0.717 -6.842,1.726 -4.186,2.06 -7.502,5.194 -10.546,8.413 -6.02,6.552 -10.987,13.824 -16.006,21.007 -4.995,7.202 -9.924,14.439 -15.333,21.305 -5.42,6.824 -11.287,13.425 -18.43,18.465 -3.572,2.487 -7.49,4.531 -11.704,5.689 -4.214,1.143 -8.687,1.29 -12.992,0.452 4.285,0.926 8.785,0.875 13.059,-0.194 4.273,-1.082 8.278,-3.067 11.938,-5.507 7.319,-4.946 13.369,-11.485 18.959,-18.237 5.58,-6.794 10.672,-13.956 15.808,-21.047 5.151,-7.069 10.262,-14.215 16.246,-20.462 3.005,-3.066 6.274,-5.976 10.028,-7.717 1.865,-0.857 3.846,-1.407 5.816,-1.36 2.007,0.03 4.089,0.444 5.971,1.147 3.813,1.426 6.857,4.389 8.812,7.996 1.989,3.611 3.001,7.77 3.459,11.956 0.836,8.427 -0.491,17.077 -3.158,25.154 -2.696,8.07 -6.842,15.728 -12.567,21.829 l 0.202,0.185 c -42.16,42.025 -98.068,53.704 -102.877,53.707 -0.211,0 -0.324,-0.023 -0.333,-0.065 -0.247,-1.113 17.837,-12.502 17.837,-12.502 0,0 -39.354,14.173 -44.784,14.174 -0.377,0 -0.59,-0.069 -0.616,-0.213 -0.406,-2.242 16.377,-14.195 16.377,-14.195 0,0 -43.194,16.632 -46.644,16.633 -0.1,0 -0.166,-0.012 -0.196,-0.041 -1.111,-1.018 19.527,-18.973 19.527,-18.973 0,0 -46.838,14.961 -50.817,14.961 -0.178,0 -0.269,-0.032 -0.269,-0.091 0,-1.449 88.846,-70.583 113.276,-110.565 15.431,-25.248 51.865,-46.368 90.084,-46.368 22.299,0 45.203,7.188 64.905,24.939 0.968,0.874 1.81,1.843 2.572,2.87 -5.709,9.618 -6.919,21.75 -3.433,35.518"
             style="fill:#110f0d;fill-opacity:1;fill-rule:nonzero;stroke:none"
             id="path492072" />
        </g>
      </g>
    </g>
  </g>
</svg>
